<svg xmlns="http://www.w3.org/2000/svg" viewBox="0 0 500 500"><g id="freepik--background-simple--inject-29"><path d="M455.3,119.7S385.73,36.49,278,17.39,149.05,79.46,112.9,127.2,35.82,192.68,33.78,261.57s25.91,104.36,79.8,128.92,109.13,37.51,163,45,96.85,3.41,118-40.93,11.59-64.8,36.15-85.94S510.55,191.32,455.3,119.7Z" style="fill:#407BFF"></path><path d="M455.3,119.7S385.73,36.49,278,17.39,149.05,79.46,112.9,127.2,35.82,192.68,33.78,261.57s25.91,104.36,79.8,128.92,109.13,37.51,163,45,96.85,3.41,118-40.93,11.59-64.8,36.15-85.94S510.55,191.32,455.3,119.7Z" style="fill:#fff;opacity:0.7000000000000001"></path></g></svg>
