<?xml version="1.0" encoding="UTF-8" standalone="no"?>
<!-- Created with Inkscape (http://www.inkscape.org/) -->

<svg
   xmlns:dc="http://purl.org/dc/elements/1.1/"
   xmlns:cc="http://creativecommons.org/ns#"
   xmlns:rdf="http://www.w3.org/1999/02/22-rdf-syntax-ns#"
   xmlns:svg="http://www.w3.org/2000/svg"
   xmlns="http://www.w3.org/2000/svg"
   xmlns:sodipodi="http://sodipodi.sourceforge.net/DTD/sodipodi-0.dtd"
   xmlns:inkscape="http://www.inkscape.org/namespaces/inkscape"
   width="700mm"
   height="700mm"
   viewBox="0 0 700 700"
   version="1.1"
   id="svg18306"
   inkscape:version="0.92.4 (5da689c313, 2019-01-14)"
   sodipodi:docname="hurb-logo.svg">
  <defs
     id="defs18300">
    <clipPath
       clipPathUnits="userSpaceOnUse"
       id="clipPath400">
      <path
         d="m 435.569,423.814 h 72.638 v 23.457 h -72.638 z"
         id="path398"
         inkscape:connector-curvature="0" />
    </clipPath>
    <clipPath
       clipPathUnits="userSpaceOnUse"
       id="clipPath408">
      <path
         d="M -32768,32767 H 32767 V -32768 H -32768 Z"
         id="path406"
         inkscape:connector-curvature="0" />
    </clipPath>
  </defs>
  <sodipodi:namedview
     id="base"
     pagecolor="#ffffff"
     bordercolor="#666666"
     borderopacity="1.0"
     inkscape:pageopacity="0.0"
     inkscape:pageshadow="2"
     inkscape:zoom="0.0875"
     inkscape:cx="1943.1613"
     inkscape:cy="2201.5699"
     inkscape:document-units="mm"
     inkscape:current-layer="layer1"
     showgrid="false"
     inkscape:window-width="1600"
     inkscape:window-height="837"
     inkscape:window-x="-8"
     inkscape:window-y="-8"
     inkscape:window-maximized="1" />
  <metadata
     id="metadata18303">
    <rdf:RDF>
      <cc:Work
         rdf:about="">
        <dc:format>image/svg+xml</dc:format>
        <dc:type
           rdf:resource="http://purl.org/dc/dcmitype/StillImage" />
        <dc:title></dc:title>
      </cc:Work>
    </rdf:RDF>
  </metadata>
  <g
     inkscape:label="Layer 1"
     inkscape:groupmode="layer"
     id="layer1"
     transform="translate(0,403)">
    <g
       transform="matrix(7.5547148,0,0,-7.5547148,-3207.173,3242.2358)"
       id="g394"
       style="fill:#3468fc;fill-opacity:1">
      <g
         id="g396"
         clip-path="url(#clipPath400)"
         style="fill:#3468fc;fill-opacity:1">
        <g
           id="g402"
           style="fill:#3468fc;fill-opacity:1">
          <g
             id="g404"
             style="fill:#3468fc;fill-opacity:1" />
          <g
             id="g454"
             style="fill:#3468fc;fill-opacity:1">
            <g
               clip-path="url(#clipPath408)"
               id="g452"
               style="fill:#3468fc;fill-opacity:1">
              <g
                 transform="matrix(0.1415513,0,0,-0.140543,650.02979,419.9169)"
                 id="g414"
                 style="fill:#3468fc;fill-opacity:1">
                <g
                   transform="translate(-1489.9691,-135.3873)"
                   id="g412"
                   style="fill:#3468fc;fill-opacity:1">
                  <path
                     d="m 0,0 v 2.6 c 0.1,3.5 0.2,7 0.5,10.5 0.3,4.1 0.8,8.1 1.4,12.1 0.5,3.3 1.4,6.6 2.3,9.9 0.8,2.9 1.8,5.7 2.9,8.4 1.4,3.5 3.3,6.9 5.5,10.1 2.8,4 6,7.6 9.9,10.5 3.2,2.4 6.6,4.4 10.3,5.9 3.9,1.6 8,2.8 12.2,3.6 3.2,0.5 6.5,0.8 9.7,1.1 2.6,0.2 5.1,0.3 7.7,0.2 3.5,-0.2 7,-0.6 10.4,-1 3.3,-0.3 6.5,-1.3 9.6,-2.2 1.7,-0.5 3.4,-1.2 5,-1.9 4.4,-1.9 8.4,-4.3 12,-7.4 4.4,-3.8 7.9,-8.3 10.8,-13.5 2.3,-4.2 4,-8.6 5.4,-13.2 0.9,-3.2 1.6,-6.5 2.2,-9.7 0.8,-4.4 1.1,-8.9 1.6,-13.3 0.1,-1.3 0.1,-2.6 0.2,-3.9 V -5.5 c 0,-2.6 1.1,-4 3.6,-4.9 2.3,-0.8 4.6,-1 7,-1.1 2.6,0 5.3,-0.1 7.9,0.5 1.9,0.4 3.6,1.1 4.6,2.8 0.3,0.4 0.5,1 0.5,1.5 0.1,1.3 0.2,2.7 0.3,4 v 4.4 c 0,5.9 -0.2,11.9 -0.9,17.8 -0.5,5.1 -1.4,10.1 -2.5,15 -0.9,4.1 -2.1,8.2 -3.5,12.2 -2.3,6.7 -5.4,13 -9.4,18.8 -3.3,4.9 -7.2,9.5 -11.7,13.4 -4.1,3.6 -8.6,6.7 -13.5,9.2 -3.5,1.8 -7.2,3.5 -11,4.6 -2.7,0.8 -5.4,1.7 -8.1,2.3 -2.7,0.6 -5.5,1 -8.3,1.4 -3,0.5 -6.1,0.5 -9.1,0.8 -3,0.4 -5.9,0 -8.9,0.3 -0.3,0 -0.6,0.1 -0.9,0 C 53.5,96.9 51.2,97.2 49,96.9 45.4,96.5 41.8,96 38.3,95.3 34.7,94.6 31.2,93.6 27.7,92.5 22.4,90.7 17.4,88.3 12.6,85.3 8.3,82.6 4.3,79.5 0.8,75.9 -4.3,70.7 -8.6,64.9 -12,58.4 c -1.8,-3.4 -3.3,-6.8 -4.7,-10.3 -1.4,-3.8 -2.6,-7.6 -3.5,-11.5 -0.8,-3.7 -1.6,-7.3 -2.2,-11 -0.5,-2.7 -0.6,-5.4 -1,-8.1 -0.8,-6.8 -0.7,-13.6 -0.7,-20.4 0,-1.2 0.1,-2.4 0.1,-3.5 0.1,-1.5 0.9,-2.6 2.1,-3.4 0.8,-0.5 1.7,-1 2.5,-1.1 1.7,-0.3 3.5,-0.6 5.2,-0.6 2.8,-0.1 5.6,-0.1 8.4,0.5 0.9,0.2 1.9,0.5 2.8,0.9 1.9,0.9 2.8,2.5 2.7,4.6 C 0,-3.7 0,-1.9 0,0"
                     style="fill:#3468fc;fill-opacity:1;fill-rule:nonzero;stroke:none"
                     id="path410"
                     inkscape:connector-curvature="0" />
                </g>
              </g>
              <g
                 transform="matrix(0.1415513,0,0,-0.140543,650.02979,419.9169)"
                 id="g420"
                 style="fill:#3468fc;fill-opacity:1">
                <g
                   transform="translate(-1447.4691,-182.7873)"
                   id="g418"
                   style="fill:#3468fc;fill-opacity:1">
                  <path
                     d="m 0,0 v 7.1 c 0,3.8 0.1,7.6 0.1,11.4 0,1.1 0.1,2.1 0.2,3.2 0.1,0.7 0.3,1 1.1,1.1 1.1,0.1 2.3,0.2 3.4,0.2 6.9,0.1 13.8,0.1 20.6,0.1 2.4,0 4.9,-0.2 7.3,-0.3 0.8,0 1,-0.2 1.2,-1 0.1,-0.2 0.1,-0.5 0.1,-0.7 0.1,-6.8 0.1,-13.6 0.2,-20.4 0,-1.5 -0.1,-2.9 -0.2,-4.4 -0.1,-2.9 1.4,-4.9 4.2,-5.8 2.1,-0.6 4.2,-1.2 6.3,-1 3.1,0.3 6.3,0.4 9.2,1.7 1.8,0.8 3.4,1.9 3.8,4 0.2,1 0.2,2 0.1,3 -0.5,4.2 -1.1,8.4 -1.7,12.6 -0.4,3.3 -0.8,6.6 -1.1,9.9 -0.2,1.5 -0.2,3 -0.3,4.5 -0.6,6.3 -0.3,12.7 -0.4,19 0,7 -0.1,14.1 -0.1,21.1 v 0.6 c 0,3.3 -1.9,5.2 -4.9,6 -3.7,1 -7.3,0.8 -11,0.2 -1.2,-0.2 -2.4,-0.5 -3.5,-0.9 -2.7,-1 -4.1,-2.9 -3.8,-5.8 0.5,-5.3 1,-10.6 1.5,-15.9 0.2,-2.6 0.4,-5.1 0.6,-7.7 0.1,-0.7 -0.1,-0.9 -0.9,-1 -1.5,-0.1 -2.9,-0.2 -4.4,-0.2 -4.7,-0.1 -9.4,-0.3 -14,-0.4 -3.2,0 -6.4,0.1 -9.6,0.2 -0.5,0 -1.1,0.1 -1.6,0.2 -0.9,0.1 -1,0.2 -1,1 0,1 0.2,2 0.2,3 0.1,1.7 0.2,3.5 0.4,5.2 0.3,3.4 0.6,6.7 1,10.1 0.2,1.9 0.4,3.9 0.5,5.8 0.1,2.6 -1.3,4.5 -3.9,5.4 -2.3,0.9 -4.7,1.2 -7.2,1.3 -1.2,0.1 -2.4,0 -3.7,0 -1.8,0 -3.6,-0.4 -5.2,-1.2 -2.1,-1 -3.3,-2.7 -3.3,-5.1 0,-10 0,-20 -0.2,-30 -0.1,-5.6 -0.2,-11.3 -0.9,-16.9 -0.6,-4.5 -1,-9 -1.5,-13.5 -0.3,-2.4 -0.7,-4.8 -1,-7.2 -0.2,-1.1 -0.3,-2.3 0,-3.4 0.6,-2 2,-3.3 3.9,-4.1 1.7,-0.7 3.6,-1.2 5.4,-1.3 1.7,-0.1 3.3,-0.7 4.9,-0.5 2.2,0.3 4.4,0.5 6.5,1.6 2,1.1 2.9,2.8 2.8,5 v 4 C 0.2,0 0.1,0 0,0"
                     style="fill:#3468fc;fill-opacity:1;fill-rule:nonzero;stroke:none"
                     id="path416"
                     inkscape:connector-curvature="0" />
                </g>
              </g>
              <g
                 transform="matrix(0.1415513,0,0,-0.140543,650.02979,419.9169)"
                 id="g426"
                 style="fill:#3468fc;fill-opacity:1">
                <g
                   transform="translate(-1270.9691,-68.3873)"
                   id="g424"
                   style="fill:#3468fc;fill-opacity:1">
                  <path
                     d="M 0,0 V 1.6 H 4"
                     style="fill:#3468fc;fill-opacity:1;fill-rule:nonzero;stroke:none"
                     id="path422"
                     inkscape:connector-curvature="0" />
                </g>
              </g>
              <g
                 transform="matrix(0.1415513,0,0,-0.140543,650.02979,419.9169)"
                 id="g432"
                 style="fill:#3468fc;fill-opacity:1">
                <g
                   transform="translate(-1248.7692,-113.3873)"
                   id="g430"
                   style="fill:#3468fc;fill-opacity:1">
                  <path
                     d="m 0,0 c 0,-3.4 -0.6,-6.7 -1.8,-9.9 -2.8,-6.8 -7.8,-10.6 -15,-11.7 -2.3,-0.3 -4.6,-0.5 -6.9,-0.2 -3,0.4 -5.8,1.1 -8.5,2.5 -3.9,1.9 -7.2,4.5 -10.2,7.7 -0.1,0.1 -0.3,0.2 -0.7,0.5 -0.1,-0.5 -0.2,-0.9 -0.2,-1.3 0,-2 0.1,-4 0.1,-6 v -24 -4.9 h -2.6 -1.6 -15.5 -2.4 v 2.8 88.7 2.6 h 4.4 13.9 3.8 V 46 45.3 3.6 c 0,-1.1 0.3,-1.8 1.2,-2.4 1.4,-0.9 2.8,-2 4.4,-2.7 3.2,-1.5 6.6,-2 10.1,-0.9 2.4,0.8 4,2.3 4.7,4.7 0.6,1.9 0.7,3.8 0.7,5.7 v 37.1 1.6 h 2.6 1.3 15 3.1 V 42.8 C -0.1,28.5 -0.1,14.3 0,0"
                     style="fill:#3468fc;fill-opacity:1;fill-rule:nonzero;stroke:none"
                     id="path428"
                     inkscape:connector-curvature="0" />
                </g>
              </g>
              <g
                 transform="matrix(0.1415513,0,0,-0.140543,650.02979,419.9169)"
                 id="g438"
                 style="fill:#3468fc;fill-opacity:1">
                <g
                   transform="translate(-1165.0691,-72.7873)"
                   id="g436"
                   style="fill:#3468fc;fill-opacity:1">
                  <path
                     d="m 0,0 v -58.8 -0.6 -1.4 h -3.5 -12.5 -4.2 -1.2 -0.7 v 2 0.3 41.9 c 0,0.8 -0.1,1.4 -0.7,1.9 -3.5,2.8 -7.4,4.3 -11.9,3.7 -3.8,-0.4 -6.5,-2.5 -7.1,-6.7 -0.3,-1.8 -0.4,-3.6 -0.4,-5.5 V -44 -57.2 -60.9 h -3.2 -15.5 -3.5 v 3.9 41.3 c 0,1.8 0.1,3.7 0.3,5.5 0.3,3.1 1.3,6.1 2.8,8.8 3.3,5.7 8.4,8.5 14.8,9.1 2.7,0.3 5.4,0.2 8.1,-0.4 1.8,-0.4 3.6,-1 5.3,-1.8 3.6,-1.7 6.8,-4 9.7,-6.7 0.2,-0.2 0.6,-0.4 1,-0.7 0.1,0.4 0.2,0.6 0.2,0.9 v 1.3 0.1 0.1 3.8 1.3 h 6.1 10.1 5.8 z"
                     style="fill:#3468fc;fill-opacity:1;fill-rule:nonzero;stroke:none"
                     id="path434"
                     inkscape:connector-curvature="0" />
                </g>
              </g>
              <g
                 transform="matrix(0.1415513,0,0,-0.140543,650.02979,419.9169)"
                 id="g444"
                 style="fill:#3468fc;fill-opacity:1">
                <g
                   transform="translate(-1103.1692,-116.1873)"
                   id="g442"
                   style="fill:#3468fc;fill-opacity:1">
                  <path
                     d="m 0,0 v -7.9 -7.8 -0.3 -1.3 l -2.4,-0.4 c -0.3,0 -0.6,-0.1 -0.8,-0.1 -3.7,-0.6 -7.1,-0.2 -10.4,1.6 -2.6,1.4 -4.6,3.5 -6.2,6 -0.2,0.4 -0.5,0.7 -0.7,1.1 -0.1,0 -0.3,0 -0.4,-0.1 0,-0.4 -0.1,-0.8 -0.1,-1.1 v -4 -3.1 h -5.7 -9.8 -5.1 v 1.4 0.4 5.3 53.5 5.9 h 5.9 7.2 7.6 V 42.5 40.1 12.6 c 0,-0.7 0.1,-1.4 0.4,-2.1 2.1,-4 5.4,-6.4 9.7,-7.5 2.9,-0.8 5.9,-0.8 8.9,-0.5 l 1.8,0.2 V 0.8 C 0,0.4 0,0.2 0,0"
                     style="fill:#3468fc;fill-opacity:1;fill-rule:nonzero;stroke:none"
                     id="path440"
                     inkscape:connector-curvature="0" />
                </g>
              </g>
              <g
                 transform="matrix(0.1415513,0,0,-0.140543,650.02979,419.9169)"
                 id="g450"
                 style="fill:#3468fc;fill-opacity:1">
                <g
                   transform="translate(-1017.5692,-104.1873)"
                   id="g448"
                   style="fill:#3468fc;fill-opacity:1">
                  <path
                     d="m 0,0 c -0.1,-1.1 -0.1,-2.3 -0.3,-3.4 -0.6,-3.7 -1.5,-7.2 -3,-10.6 -2.1,-4.5 -4.8,-8.5 -8.8,-11.5 -3,-2.2 -6.3,-3.7 -9.9,-4.6 -2.6,-0.6 -5.2,-0.7 -7.9,-0.6 -2.8,0.2 -5.5,0.8 -8,2.1 -2.5,1.3 -4.8,3 -6.9,5 -0.4,0.4 -0.9,0.8 -1.3,1.1 -0.7,-0.4 -0.5,-0.9 -0.5,-1.3 v -29.6 -3.7 h -3.3 -16.2 -2.7 v 0.9 1.8 90.6 3.6 h 0.5 0.9 c 1.3,-0.2 2.5,-0.4 3.7,-0.6 2.4,-0.3 4.8,-0.6 7.1,-1 2.5,-0.3 5.1,-0.7 7.6,-1 0.7,-0.1 1.4,0.1 2.1,0.3 2.2,0.5 4.4,1.2 6.6,1.6 3.1,0.5 6.2,1 9.4,0.6 1.7,-0.2 3.4,-0.3 5.1,-0.7 2.7,-0.6 5.4,-1.6 7.9,-2.9 5.3,-2.8 9.5,-6.7 12.6,-11.8 1.4,-2.4 2.6,-4.9 3.4,-7.5 C -1,14.2 -0.5,11.5 -0.2,8.7 0.2,5.4 0,1 0,0 m -22.5,9.6 c -0.7,4.2 -2.2,8 -5.6,10.8 -2.5,2.1 -5.5,2.9 -8.6,2.9 -2.9,0 -5.7,-0.5 -8.4,-1.9 -0.2,-0.1 -0.4,-0.2 -0.5,-0.3 -0.8,-0.3 -1,-0.9 -1,-1.7 V 9.6 5.9 -7.3 c 0,-0.9 0.3,-1.5 1,-2.1 2,-1.6 4.1,-2.9 6.5,-3.4 2.9,-0.6 5.8,-0.5 8.5,0.5 2.4,0.9 4.3,2.6 5.6,4.9 1.6,2.7 2.4,5.8 2.7,8.9 0.3,2.8 0.2,5.5 -0.2,8.1"
                     style="fill:#3468fc;fill-opacity:1;fill-rule:nonzero;stroke:none"
                     id="path446"
                     inkscape:connector-curvature="0" />
                </g>
              </g>
            </g>
          </g>
        </g>
      </g>
    </g>
  </g>
</svg>
